# xmcd
# Copyright (C) 1995-1998 Ti Kan
#
# Track frame offsets:
#       150
#       73175
#       132163
#       211043
#
# Disc length: 3873 seconds
#
# Revision: 0
# Processed by: cddbd v1.5.2PL0 Copyright (c) Steve Scherf et al.
# Submitted via: CD-Transfer v1.0
#
DISCID=350f1f04
DTITLE=Friday Night Life Mixed By Dj U.r.s. - 
DYEAR=1900
DGENRE=
TTITLE0=Feel The Rhythm
TTITLE1=Hip The Hop
TTITLE2=Funkygrooves
TTITLE3=Strongly House
EXTD=
EXTT0=
EXTT1=
EXTT2=
EXTT3=
PLAYORDER=
